<svg width="25" height="24" viewBox="0 0 25 24" fill="none" xmlns="http://www.w3.org/2000/svg">
	<path d="M9.43985 7H6.50641C5.98774 7 5.49032 7.21071 5.12357 7.58579C4.75682 7.96086 4.55078 8.46957 4.55078 9V18C4.55078 18.5304 4.75682 19.0391 5.12357 19.4142C5.49032 19.7893 5.98774 20 6.50641 20H15.3067C15.8254 20 16.3228 19.7893 16.6896 19.4142C17.0563 19.0391 17.2623 18.5304 17.2623 18V15" stroke="#009FE0" stroke-width="1.5" stroke-linecap="round" stroke-linejoin="round" />
	<path d="M9.44141 15.0002H12.3748L20.6863 6.50023C21.0753 6.1024 21.2938 5.56284 21.2938 5.00023C21.2938 4.43762 21.0753 3.89805 20.6863 3.50023C20.2973 3.1024 19.7697 2.87891 19.2195 2.87891C18.6694 2.87891 18.1418 3.1024 17.7528 3.50023L9.44141 12.0002V15.0002Z" stroke="#009FE0" stroke-width="1.5" stroke-linecap="round" stroke-linejoin="round" />
	<path d="M16.2852 5L19.2186 8" stroke="#009FE0" stroke-width="1.5" stroke-linecap="round" stroke-linejoin="round" />
</svg>
