<svg width="19" height="20" viewBox="0 0 19 20" fill="none" xmlns="http://www.w3.org/2000/svg">
<path d="M3.63623 5.60156H15.6682" stroke="#E35205" stroke-linecap="round" stroke-linejoin="round"/>
<path d="M8.14795 8.79688V13.5969" stroke="#E35205" stroke-linecap="round" stroke-linejoin="round"/>
<path d="M11.1558 8.79688V13.5969" stroke="#E35205" stroke-linecap="round" stroke-linejoin="round"/>
<path d="M4.38818 5.60156L5.14018 15.2016C5.14018 15.6259 5.29864 16.0329 5.58069 16.3329C5.86275 16.633 6.24529 16.8016 6.64418 16.8016H12.6602C13.059 16.8016 13.4416 16.633 13.7237 16.3329C14.0057 16.0329 14.1642 15.6259 14.1642 15.2016L14.9162 5.60156" stroke="#E35205" stroke-linecap="round" stroke-linejoin="round"/>
<path d="M7.396 5.59844V3.19844C7.396 2.98626 7.47522 2.78278 7.61625 2.63275C7.75728 2.48272 7.94855 2.39844 8.14799 2.39844H11.156C11.3554 2.39844 11.5467 2.48272 11.6877 2.63275C11.8288 2.78278 11.908 2.98626 11.908 3.19844V5.59844" stroke="#E35205" stroke-linecap="round" stroke-linejoin="round"/>
</svg>
